<?xml version="1.0" encoding="UTF-8" standalone="no"?>
<!-- Created with Inkscape (http://www.inkscape.org/) -->

<svg
   xmlns:dc="http://purl.org/dc/elements/1.1/"
   xmlns:cc="http://creativecommons.org/ns#"
   xmlns:rdf="http://www.w3.org/1999/02/22-rdf-syntax-ns#"
   xmlns:svg="http://www.w3.org/2000/svg"
   xmlns="http://www.w3.org/2000/svg"
   xmlns:sodipodi="http://sodipodi.sourceforge.net/DTD/sodipodi-0.dtd"
   xmlns:inkscape="http://www.inkscape.org/namespaces/inkscape"
   width="1000"
   height="1000"
   viewBox="0 0 1000 1000"
   id="svg4776"
   version="1.1"
   inkscape:version="0.91 r13725"
   sodipodi:docname="10mPS.svg">
  <defs
     id="defs4778" />
  <sodipodi:namedview
     id="base"
     pagecolor="#ffffff"
     bordercolor="#666666"
     borderopacity="1.0"
     inkscape:pageopacity="0.0"
     inkscape:pageshadow="2"
     inkscape:zoom="1.5301741"
     inkscape:cx="383.50886"
     inkscape:cy="511.24835"
     inkscape:document-units="px"
     inkscape:current-layer="layer1"
     showgrid="true"
     units="px"
     inkscape:window-width="1920"
     inkscape:window-height="1027"
     inkscape:window-x="-8"
     inkscape:window-y="22"
     inkscape:window-maximized="1">
    <inkscape:grid
       type="xygrid"
       id="grid4796"
       visible="true"
       enabled="true" />
  </sodipodi:namedview>
  <metadata
     id="metadata4781">
    <rdf:RDF>
      <cc:Work
         rdf:about="">
        <dc:format>image/svg+xml</dc:format>
        <dc:type
           rdf:resource="http://purl.org/dc/dcmitype/StillImage" />
        <dc:title />
      </cc:Work>
    </rdf:RDF>
  </metadata>
  <g
     inkscape:label="レイヤー 1"
     inkscape:groupmode="layer"
     id="layer1"
     transform="translate(0,-52.362161)">
    <path
       style="fill:#ff0000;fill-rule:evenodd;stroke:#000000;stroke-width:0.95564181px;stroke-linecap:butt;stroke-linejoin:miter;stroke-opacity:1"
       d="m 87.4402,352.33998 -52.006343,370.04436 73.051343,0 52.00635,-370.04436 z"
       id="path4798"
       inkscape:connector-curvature="0" />
    <path
       style="fill:#ff0000;fill-rule:evenodd;stroke:#000000;stroke-width:0.95321774px;stroke-linecap:butt;stroke-linejoin:miter;stroke-opacity:1"
       d="m 180.65594,352.33877 -52.00669,370.04678 145.36147,0 52.00669,-370.04678 -145.36147,0 z m 57.23916,20.00253 27.25528,0 -46.38434,330.04172 -27.25528,0 46.38434,-330.04172 z"
       id="path4800"
       inkscape:connector-curvature="0" />
    <path
       style="fill:#ff0000;fill-rule:evenodd;stroke:#000000;stroke-width:0.96205783px;stroke-linecap:butt;stroke-linejoin:miter;stroke-opacity:1"
       d="m 345.97428,352.33422 -6.50173,46.26218 116.1394,27.75731 6.50172,-46.26218 z"
       id="path4804"
       inkscape:connector-curvature="0" />
    <path
       style="fill:#ff0000;fill-rule:evenodd;stroke:#000000;stroke-width:0.96205783px;stroke-linecap:butt;stroke-linejoin:miter;stroke-opacity:1"
       d="m 337.32562,412.13655 -6.50173,46.26218 116.1394,27.75731 6.50172,-46.26218 z"
       id="path4804-5"
       inkscape:connector-curvature="0" />
    <path
       style="fill:#ff0000;fill-rule:evenodd;stroke:#000000;stroke-width:0.96205783px;stroke-linecap:butt;stroke-linejoin:miter;stroke-opacity:1"
       d="m 330.09942,473.96991 -6.50173,46.26218 116.1394,27.7573 6.50172,-46.26217 z"
       id="path4804-3"
       inkscape:connector-curvature="0" />
    <path
       style="fill:#ff0000;fill-rule:evenodd;stroke:#000000;stroke-width:1.04686582px;stroke-linecap:butt;stroke-linejoin:miter;stroke-opacity:1"
       d="m 355.2085,642.36216 1.40541,-10 -0.13867,0 7.95099,-56.57422 0.0254,0 0.46252,-3.29101 -49.7461,0 -0.46252,3.29101 0.0254,0 -7.95099,56.57422 -0.11523,0 -1.40541,10 49.94922,0 z"
       id="path4251"
       inkscape:connector-curvature="0" />
    <path
       style="fill:#ff0000;fill-rule:evenodd;stroke:#000000;stroke-width:1.04686582px;stroke-linecap:butt;stroke-linejoin:miter;stroke-opacity:1"
       d="m 320.20364,535.70786 -5.5445,39.45118 0.0195,0 -10.85019,77.20312 0.0254,0 -1.40239,9.97852 49.94922,0 1.40239,-9.97852 0.0254,0 12.64868,-90 -0.004,0 2.10234,-14.95898 -48.37195,-11.69532 z"
       id="path4249"
       inkscape:connector-curvature="0" />
    <path
       style="fill:#ff0000;fill-rule:evenodd;stroke:#000000;stroke-width:1.01995718px;stroke-linecap:butt;stroke-linejoin:miter;stroke-opacity:1"
       d="m 377.18227,632.36216 48.92578,0 4.14019,-29.45898 -48.92578,0 -4.14019,29.45898 z"
       id="path4260"
       inkscape:connector-curvature="0" />
    <path
       style="fill:#ff0000;fill-rule:evenodd;stroke:#000000;stroke-width:1.01995718px;stroke-linecap:butt;stroke-linejoin:miter;stroke-opacity:1"
       d="m 387.92573,552.08286 -0.1367,0.97266 -0.002,0 -2.71337,19.30664 -0.002,0 -1.40541,10 -5.62163,40 -1.40541,10 -0.002,0 -3.87339,27.56055 -22.92083,20.81054 -49.99218,0 -5.84919,41.61914 78.55664,0 47.24584,-41.42578 4.01447,-28.56445 0.01,0 4.21623,-30 3.82314,-27.20312 0.0195,0 4.4103,-31.38086 -48.37195,-11.69532 z"
       id="path4258"
       inkscape:connector-curvature="0" />
    <path
       style="fill:#ff0000;fill-opacity:1;fill-rule:evenodd;stroke:#000000;stroke-width:1px;stroke-linecap:butt;stroke-linejoin:miter;stroke-opacity:1"
       d="m 485.99073,352.36216 -36.54062,260 110,0 -11.24326,80 -14.21623,30 50,0 14.21623,-30 14.05408,-100 -30,0 5.48439,-39.02344 30,0 2.81081,-20 -30,0 4.35348,-30.97656 0.89128,-6.3418 0.51412,-3.6582 30,0 2.81082,-20 -30,0 1.40541,-10 4.21622,-30 30,0 2.81082,-20 -30,0 5.62163,-40 30,0 2.81082,-20 -160,0 z m 47.18918,20 30,0 -5.62163,40 -30,0 5.62163,-40 z m -8.43245,60 30,0 -4.21622,30 -1.40541,10 -30,0 1.40541,-10 4.21622,-30 z m -8.43245,60 30,0 -0.51412,3.6582 -0.89128,6.3418 -4.35348,30.97656 -30,0 4.35348,-30.97656 0.89128,-6.3418 0.51412,-3.6582 z m -8.56969,60.97656 30,0 -5.48439,39.02344 -30,0 5.48439,-39.02344 z"
       id="path5383"
       inkscape:connector-curvature="0" />
    <path
       style="fill:#ff0000;fill-opacity:1;stroke:#000000;stroke-width:0.99999994;stroke-opacity:1"
       d="m 694.06495,352.36216 -20.52367,90 -20.19922,0 -4.21623,30 17.57617,0 -57.00826,250 50,0 57.00826,-250 32.42383,0 -29.51357,210 -38.05664,0 -0.70953,40 33.14453,0 6.85547,0 43.14453,0 35.13521,-250 4.21623,-30 -79.80078,0 20.52367,-90 -50,0 z"
       id="rect4295"
       inkscape:connector-curvature="0" />
    <rect
       style="fill:#ff0000;fill-opacity:1;stroke:#000000;stroke-width:1.00490177;stroke-opacity:1"
       id="rect4343"
       width="40"
       height="80.786209"
       x="525.51202"
       y="638.57678"
       transform="matrix(1,0,-0.1391731,0.99026807,0,0)" />
    <rect
       style="fill:#ff0000;fill-opacity:1;stroke:#000000;stroke-width:1.00490177;stroke-opacity:1"
       id="rect4347"
       width="60"
       height="40.393105"
       x="575.51202"
       y="648.67505"
       transform="matrix(1,0,-0.1391731,0.99026807,0,0)" />
  </g>
</svg>
