<?xml version="1.0" encoding="UTF-8" standalone="no"?>
<!-- Created with Inkscape (http://www.inkscape.org/) -->

<svg
   xmlns:dc="http://purl.org/dc/elements/1.1/"
   xmlns:cc="http://creativecommons.org/ns#"
   xmlns:rdf="http://www.w3.org/1999/02/22-rdf-syntax-ns#"
   xmlns:svg="http://www.w3.org/2000/svg"
   xmlns="http://www.w3.org/2000/svg"
   xmlns:sodipodi="http://sodipodi.sourceforge.net/DTD/sodipodi-0.dtd"
   xmlns:inkscape="http://www.inkscape.org/namespaces/inkscape"
   width="1000"
   height="1000"
   viewBox="0 0 1000 1000"
   id="svg4776"
   version="1.1"
   inkscape:version="0.91 r13725"
   sodipodi:docname="10mPS.svg">
  <defs
     id="defs4778" />
  <sodipodi:namedview
     id="base"
     pagecolor="#ffffff"
     bordercolor="#666666"
     borderopacity="1.0"
     inkscape:pageopacity="0.0"
     inkscape:pageshadow="2"
     inkscape:zoom="0.82"
     inkscape:cx="85.659006"
     inkscape:cy="520"
     inkscape:document-units="px"
     inkscape:current-layer="layer1"
     showgrid="true"
     units="px"
     inkscape:window-width="1920"
     inkscape:window-height="1027"
     inkscape:window-x="-8"
     inkscape:window-y="22"
     inkscape:window-maximized="1">
    <inkscape:grid
       type="xygrid"
       id="grid4796"
       visible="true"
       enabled="true" />
  </sodipodi:namedview>
  <metadata
     id="metadata4781">
    <rdf:RDF>
      <cc:Work
         rdf:about="">
        <dc:format>image/svg+xml</dc:format>
        <dc:type
           rdf:resource="http://purl.org/dc/dcmitype/StillImage" />
        <dc:title></dc:title>
      </cc:Work>
    </rdf:RDF>
  </metadata>
  <g
     inkscape:label="レイヤー 1"
     inkscape:groupmode="layer"
     id="layer1"
     transform="translate(0,-52.362161)">
    <path
       style="fill:#ff0000;fill-rule:evenodd;stroke:#000000;stroke-width:1px;stroke-linecap:butt;stroke-linejoin:miter;stroke-opacity:1"
       d="m 30,352.36216 0,370 80,0 0,-370 z"
       id="path4798"
       inkscape:connector-curvature="0" />
    <path
       style="fill:#ff0000;fill-rule:evenodd;stroke:#000000;stroke-width:1px;stroke-linecap:butt;stroke-linejoin:miter;stroke-opacity:1"
       d="M 140 300 L 140 670 L 300 670 L 300 300 L 140 300 z M 206.09766 320 L 236.09766 320 L 236.09766 650 L 206.09766 650 L 206.09766 320 z "
       transform="translate(0,52.362161)"
       id="path4800" />
    <path
       style="fill:#ff0000;fill-rule:evenodd;stroke:#000000;stroke-width:1px;stroke-linecap:butt;stroke-linejoin:miter;stroke-opacity:1"
       d="m 320,352.36216 0,50 120,30 0,-50 z"
       id="path4804"
       inkscape:connector-curvature="0" />
    <path
       style="fill:#ff0000;fill-rule:evenodd;stroke:#000000;stroke-width:1px;stroke-linecap:butt;stroke-linejoin:miter;stroke-opacity:1"
       d="m 319.75609,416.99631 0,50 120,30 0,-50 z"
       id="path4804-5"
       inkscape:connector-curvature="0" />
    <path
       style="fill:#ff0000;fill-rule:evenodd;stroke:#000000;stroke-width:1px;stroke-linecap:butt;stroke-linejoin:miter;stroke-opacity:1"
       d="m 321.21951,483.82558 0,50 120,30 0,-50 z"
       id="path4804-3"
       inkscape:connector-curvature="0" />
    <path
       style="fill:#ff0000;fill-rule:evenodd;stroke:#000000;stroke-width:1.04686582px;stroke-linecap:butt;stroke-linejoin:miter;stroke-opacity:1"
       d="m 320.02471,552.63882 0,109.70125 49.95058,0 0,-98.73113 z"
       id="path4827"
       inkscape:connector-curvature="0" />
    <path
       style="fill:#ff0000;fill-rule:evenodd;stroke:#000000;stroke-width:1.01995718px;stroke-linecap:butt;stroke-linejoin:miter;stroke-opacity:1"
       d="M 389.99805 513.91602 L 389.99805 607.56055 L 370.00195 628.37109 L 320.00977 628.37109 L 320.00977 669.99023 L 398.56641 669.99023 L 439.99023 628.56445 L 439.99023 524.32031 L 389.99805 513.91602 z "
       id="path4831"
       transform="translate(0,52.362161)" />
    <path
       style="fill:#ff0000;fill-rule:evenodd;stroke:#000000;stroke-width:1px;stroke-linecap:butt;stroke-linejoin:miter;stroke-opacity:1;fill-opacity:1"
       d="M 460 300 L 460 560 L 570 560 L 570 640 L 560 670 L 610 670 L 620 640 L 620 540 L 590 540 L 590 500.97656 L 620 500.97656 L 620 480.97656 L 590 480.97656 L 590 443.6582 L 620 443.6582 L 620 423.6582 L 590 423.6582 L 590 380 L 620 380 L 620 360 L 590 360 L 590 320 L 620 320 L 620 300 L 460 300 z M 510 320 L 540 320 L 540 360 L 510 360 L 510 320 z M 510 380 L 540 380 L 540 423.6582 L 510 423.6582 L 510 380 z M 510 443.6582 L 540 443.6582 L 540 480.97656 L 510 480.97656 L 510 443.6582 z M 510 500.97656 L 540 500.97656 L 540 540 L 510 540 L 510 500.97656 z "
       transform="translate(0,52.362161)"
       id="path5383" />
    <path
       style="fill:#ff0000;fill-rule:evenodd;stroke:#000000;stroke-width:1px;stroke-linecap:butt;stroke-linejoin:miter;stroke-opacity:1"
       d="m 450,642.36216 10,70 40,0 -10,-70 z"
       id="path5385"
       inkscape:connector-curvature="0" />
    <path
       style="fill:#ff0000;fill-rule:evenodd;stroke:#000000;stroke-width:1px;stroke-linecap:butt;stroke-linejoin:miter;stroke-opacity:1"
       d="m 500,642.36216 6.09756,40.4878 53.65854,0 -8.53659,-41.46341 z"
       id="path5387"
       inkscape:connector-curvature="0" />
    <path
       style="fill:#ff0000;fill-rule:evenodd;stroke:#000000;stroke-width:1.02879548px;stroke-linecap:butt;stroke-linejoin:miter;stroke-opacity:1"
       d="M 662.08203 299.01172 L 662.08203 381.47852 L 630.25781 381.47852 L 630.25781 413.23633 L 662.08203 413.23633 L 662.08203 587.55469 L 623.16016 669.99609 L 671.8125 669.99609 L 710.73438 587.55469 L 710.73438 413.23633 L 740.23828 413.23633 L 740.23828 580 L 740 580 L 740 619.7168 L 739.98828 619.7168 L 709.95703 619.7168 L 719.9668 670.04102 L 790.04297 670.04102 L 790.04297 619.7168 L 790 619.7168 L 790 610 L 790.23047 610 L 790.23047 381.47852 L 710.73438 381.47852 L 710.73438 299.01172 L 662.08203 299.01172 z "
       transform="translate(0,52.362161)"
       id="path5420" />
  </g>
</svg>
